<svg width="375" height="812" viewBox="0 0 375 812" fill="none" xmlns="http://www.w3.org/2000/svg">
  <!-- Phone Frame -->
  <rect width="375" height="812" rx="25" fill="#000"/>
  <rect x="5" y="5" width="365" height="802" rx="20" fill="#000000"/>
  
  <!-- Chat Section -->
  <text x="187" y="300" font-family="monospace" font-size="24" font-weight="bold" fill="#ffffff" text-anchor="middle">CHAT</text>
  
  <!-- Chat Icon made with dots -->
  <g transform="translate(160, 320)">
    <circle cx="5" cy="5" r="2" fill="#ffffff"/>
    <circle cx="15" cy="5" r="2" fill="#ffffff"/>
    <circle cx="25" cy="5" r="2" fill="#ffffff"/>
    <circle cx="35" cy="5" r="2" fill="#ffffff"/>
    <circle cx="45" cy="5" r="2" fill="#ffffff"/>
    <circle cx="50" cy="5" r="2" fill="#ffffff"/>
    <circle cx="55" cy="5" r="2" fill="#ffffff"/>
    
    <circle cx="5" cy="15" r="2" fill="#ffffff"/>
    <circle cx="55" cy="15" r="2" fill="#ffffff"/>
    
    <circle cx="5" cy="25" r="2" fill="#ffffff"/>
    <circle cx="55" cy="25" r="2" fill="#ffffff"/>
    
    <circle cx="5" cy="35" r="2" fill="#ffffff"/>
    <circle cx="55" cy="35" r="2" fill="#ffffff"/>
    
    <circle cx="5" cy="45" r="2" fill="#ffffff"/>
    <circle cx="15" cy="45" r="2" fill="#ffffff"/>
    <circle cx="25" cy="45" r="2" fill="#ffffff"/>
    <circle cx="35" cy="45" r="2" fill="#ffffff"/>
    <circle cx="45" cy="45" r="2" fill="#ffffff"/>
    <circle cx="50" cy="45" r="2" fill="#ffffff"/>
    <!-- Chat bubble tail -->
    <circle cx="20" cy="55" r="2" fill="#ffffff"/>
    <circle cx="15" cy="60" r="2" fill="#ffffff"/>
  </g>
  
  <!-- Notes Section -->
  <text x="187" y="480" font-family="monospace" font-size="24" font-weight="bold" fill="#ffffff" text-anchor="middle">NOTES</text>
  
  <!-- Notes Icon made with dots -->
  <g transform="translate(160, 500)">
    <circle cx="5" cy="5" r="2" fill="#ffffff"/>
    <circle cx="15" cy="5" r="2" fill="#ffffff"/>
    <circle cx="25" cy="5" r="2" fill="#ffffff"/>
    <circle cx="35" cy="5" r="2" fill="#ffffff"/>
    <circle cx="45" cy="5" r="2" fill="#ffffff"/>
    <circle cx="50" cy="5" r="2" fill="#ffffff"/>
    <circle cx="55" cy="5" r="2" fill="#ffffff"/>
    
    <circle cx="5" cy="15" r="2" fill="#ffffff"/>
    <circle cx="55" cy="15" r="2" fill="#ffffff"/>
    
    <circle cx="5" cy="25" r="2" fill="#ffffff"/>
    <circle cx="15" cy="25" r="2" fill="#ffffff"/>
    <circle cx="25" cy="25" r="2" fill="#ffffff"/>
    <circle cx="35" cy="25" r="2" fill="#ffffff"/>
    <circle cx="55" cy="25" r="2" fill="#ffffff"/>
    
    <circle cx="5" cy="35" r="2" fill="#ffffff"/>
    <circle cx="15" cy="35" r="2" fill="#ffffff"/>
    <circle cx="25" cy="35" r="2" fill="#ffffff"/>
    <circle cx="55" cy="35" r="2" fill="#ffffff"/>
    
    <circle cx="5" cy="45" r="2" fill="#ffffff"/>
    <circle cx="15" cy="45" r="2" fill="#ffffff"/>
    <circle cx="25" cy="45" r="2" fill="#ffffff"/>
    <circle cx="35" cy="45" r="2" fill="#ffffff"/>
    <circle cx="45" cy="45" r="2" fill="#ffffff"/>
    <circle cx="50" cy="45" r="2" fill="#ffffff"/>
    <circle cx="55" cy="45" r="2" fill="#ffffff"/>
  </g>
  
  <!-- Store Section -->
  <text x="187" y="660" font-family="monospace" font-size="24" font-weight="bold" fill="#ffffff" text-anchor="middle">STORE</text>
  
  <!-- Store Icon made with dots -->
  <g transform="translate(160, 680)">
    <circle cx="5" cy="5" r="2" fill="#ffffff"/>
    <circle cx="15" cy="5" r="2" fill="#ffffff"/>
    <circle cx="25" cy="5" r="2" fill="#ffffff"/>
    <circle cx="35" cy="5" r="2" fill="#ffffff"/>
    <circle cx="45" cy="5" r="2" fill="#ffffff"/>
    <circle cx="50" cy="5" r="2" fill="#ffffff"/>
    <circle cx="55" cy="5" r="2" fill="#ffffff"/>
    
    <circle cx="5" cy="15" r="2" fill="#ffffff"/>
    <circle cx="55" cy="15" r="2" fill="#ffffff"/>
    
    <circle cx="5" cy="25" r="2" fill="#ffffff"/>
    <circle cx="55" cy="25" r="2" fill="#ffffff"/>
    
    <circle cx="5" cy="35" r="2" fill="#ffffff"/>
    <circle cx="25" cy="35" r="2" fill="#ffffff"/>
    <circle cx="35" cy="35" r="2" fill="#ffffff"/>
    <circle cx="55" cy="35" r="2" fill="#ffffff"/>
    
    <circle cx="5" cy="45" r="2" fill="#ffffff"/>
    <circle cx="15" cy="45" r="2" fill="#ffffff"/>
    <circle cx="25" cy="45" r="2" fill="#ffffff"/>
    <circle cx="35" cy="45" r="2" fill="#ffffff"/>
    <circle cx="45" cy="45" r="2" fill="#ffffff"/>
    <circle cx="50" cy="45" r="2" fill="#ffffff"/>
    <circle cx="55" cy="45" r="2" fill="#ffffff"/>
  </g>
</svg>